<svg width="413" height="373" viewBox="0 0 413 373" fill="none" xmlns="http://www.w3.org/2000/svg">
<mask id="path-1-inside-1_304_2" fill="white">
<path d="M160.056 0C194.418 0.000411027 227.43 39 261.792 39H306.479C343.765 39 362.408 39.0005 376.65 46.2568C389.177 52.6397 399.361 62.8244 405.744 75.3516C413.001 89.593 413.001 108.236 413.001 145.522V266.478C413.001 303.764 413.001 322.407 405.744 336.648C399.361 349.176 389.177 359.36 376.65 365.743C362.408 373 343.765 373 306.479 373H106.524C69.2375 373 50.5942 373 36.3528 365.743C23.8256 359.36 13.641 349.176 7.25806 336.648C0.00167682 322.407 0.0012207 303.764 0.0012207 266.478V66.5762C0.00130317 29.8072 29.8084 8.24757e-05 66.5774 0H160.056Z"/>
</mask>
<path d="M160.056 0C194.418 0.000411027 227.43 39 261.792 39H306.479C343.765 39 362.408 39.0005 376.65 46.2568C389.177 52.6397 399.361 62.8244 405.744 75.3516C413.001 89.593 413.001 108.236 413.001 145.522V266.478C413.001 303.764 413.001 322.407 405.744 336.648C399.361 349.176 389.177 359.36 376.65 365.743C362.408 373 343.765 373 306.479 373H106.524C69.2375 373 50.5942 373 36.3528 365.743C23.8256 359.36 13.641 349.176 7.25806 336.648C0.00167682 322.407 0.0012207 303.764 0.0012207 266.478V66.5762C0.00130317 29.8072 29.8084 8.24757e-05 66.5774 0H160.056Z" fill="#D9D9D9"/>
<path d="M160.056 0C194.418 0.000411027 227.43 39 261.792 39H306.479C343.765 39 362.408 39.0005 376.65 46.2568C389.177 52.6397 399.361 62.8244 405.744 75.3516C413.001 89.593 413.001 108.236 413.001 145.522V266.478C413.001 303.764 413.001 322.407 405.744 336.648C399.361 349.176 389.177 359.36 376.65 365.743C362.408 373 343.765 373 306.479 373H106.524C69.2375 373 50.5942 373 36.3528 365.743C23.8256 359.36 13.641 349.176 7.25806 336.648C0.00167682 322.407 0.0012207 303.764 0.0012207 266.478V66.5762C0.00130317 29.8072 29.8084 8.24757e-05 66.5774 0H160.056Z" fill="url(#paint0_radial_304_2)"/>
<path d="M376.65 46.2568L375.441 48.6296H375.441L376.65 46.2568ZM405.744 75.3516L408.117 74.1426L405.744 75.3516ZM405.744 336.648L408.117 337.857V337.857L405.744 336.648ZM376.65 365.743L377.859 368.116H377.859L376.65 365.743ZM36.3528 365.743L35.1438 368.116H35.1438L36.3528 365.743ZM7.25806 336.648L9.63086 335.439L9.63085 335.439L7.25806 336.648ZM0.0012207 66.5762L-2.66183 66.5762V66.5762H0.0012207ZM66.5774 0V-2.66305H66.5774L66.5774 0ZM261.792 39V41.6631H306.479V39V36.3369H261.792V39ZM306.479 39V41.6631C325.166 41.6631 339.021 41.6652 349.989 42.5615C360.926 43.4552 368.758 45.2246 375.441 48.6296L376.65 46.2568L377.859 43.884C370.3 40.0327 361.689 38.1737 350.423 37.2531C339.188 36.335 325.078 36.3369 306.479 36.3369V39ZM376.65 46.2568L375.441 48.6296C387.467 54.7572 397.244 64.5345 403.372 76.5606L405.744 75.3516L408.117 74.1426C401.479 61.1143 390.887 50.5223 377.859 43.884L376.65 46.2568ZM405.744 75.3516L403.372 76.5606C406.777 83.2433 408.546 91.075 409.44 102.012C410.336 112.98 410.338 126.835 410.338 145.522H413.001H415.664C415.664 126.923 415.666 112.814 414.748 101.578C413.828 90.3119 411.969 81.7013 408.117 74.1426L405.744 75.3516ZM413.001 145.522H410.338V266.478H413.001H415.664V145.522H413.001ZM413.001 266.478H410.338C410.338 285.165 410.336 299.02 409.44 309.988C408.546 320.925 406.777 328.757 403.372 335.439L405.744 336.648L408.117 337.857C411.969 330.299 413.828 321.688 414.748 310.422C415.666 299.186 415.664 285.077 415.664 266.478H413.001ZM405.744 336.648L403.372 335.439C397.244 347.466 387.467 357.243 375.441 363.37L376.65 365.743L377.859 368.116C390.887 361.478 401.479 350.886 408.117 337.857L405.744 336.648ZM376.65 365.743L375.441 363.37C368.758 366.775 360.926 368.545 349.989 369.439C339.021 370.335 325.166 370.337 306.479 370.337V373V375.663C325.078 375.663 339.188 375.665 350.423 374.747C361.689 373.826 370.3 371.967 377.859 368.116L376.65 365.743ZM306.479 373V370.337H106.524V373V375.663H306.479V373ZM106.524 373V370.337C87.8366 370.337 73.9815 370.335 63.0133 369.439C52.0763 368.545 44.2445 366.775 37.5618 363.37L36.3528 365.743L35.1438 368.116C42.7025 371.967 51.3131 373.826 62.5796 374.747C73.8149 375.665 87.9245 375.663 106.524 375.663V373ZM36.3528 365.743L37.5618 363.37C25.5357 357.243 15.7584 347.466 9.63086 335.439L7.25806 336.648L4.88526 337.857C11.5235 350.886 22.1156 361.478 35.1438 368.116L36.3528 365.743ZM7.25806 336.648L9.63085 335.439C6.22582 328.757 4.45641 320.925 3.5627 309.988C2.66646 299.02 2.66427 285.165 2.66427 266.478H0.0012207H-2.66183C-2.66183 285.077 -2.66379 299.186 -1.74571 310.422C-0.825091 321.688 1.03391 330.299 4.88526 337.857L7.25806 336.648ZM0.0012207 266.478H2.66427V66.5762H0.0012207H-2.66183V266.478H0.0012207ZM0.0012207 66.5762L2.66427 66.5762C2.66435 31.278 31.2792 2.66313 66.5774 2.66305L66.5774 0L66.5774 -2.66305C28.3377 -2.66297 -2.66175 28.3364 -2.66183 66.5762L0.0012207 66.5762ZM66.5774 0V2.66305H160.056V0V-2.66305H66.5774V0ZM160.056 0L160.056 2.66305C176.38 2.66325 192.566 11.9504 209.59 21.8049C226.253 31.4503 243.754 41.6631 261.792 41.6631V39V36.3369C245.468 36.3369 229.282 27.0499 212.258 17.1954C195.595 7.54998 178.094 -2.66284 160.056 -2.66305L160.056 0Z" fill="url(#paint1_linear_304_2)" mask="url(#path-1-inside-1_304_2)"/>
<path d="M376.65 46.2568L375.441 48.6296H375.441L376.65 46.2568ZM405.744 75.3516L408.117 74.1426L405.744 75.3516ZM405.744 336.648L408.117 337.857V337.857L405.744 336.648ZM376.65 365.743L377.859 368.116H377.859L376.65 365.743ZM36.3528 365.743L35.1438 368.116H35.1438L36.3528 365.743ZM7.25806 336.648L9.63086 335.439L9.63085 335.439L7.25806 336.648ZM0.0012207 66.5762L-2.66183 66.5762V66.5762H0.0012207ZM66.5774 0V-2.66305H66.5774L66.5774 0ZM261.792 39V41.6631H306.479V39V36.3369H261.792V39ZM306.479 39V41.6631C325.166 41.6631 339.021 41.6652 349.989 42.5615C360.926 43.4552 368.758 45.2246 375.441 48.6296L376.65 46.2568L377.859 43.884C370.3 40.0327 361.689 38.1737 350.423 37.2531C339.188 36.335 325.078 36.3369 306.479 36.3369V39ZM376.65 46.2568L375.441 48.6296C387.467 54.7572 397.244 64.5345 403.372 76.5606L405.744 75.3516L408.117 74.1426C401.479 61.1143 390.887 50.5223 377.859 43.884L376.65 46.2568ZM405.744 75.3516L403.372 76.5606C406.777 83.2433 408.546 91.075 409.44 102.012C410.336 112.98 410.338 126.835 410.338 145.522H413.001H415.664C415.664 126.923 415.666 112.814 414.748 101.578C413.828 90.3119 411.969 81.7013 408.117 74.1426L405.744 75.3516ZM413.001 145.522H410.338V266.478H413.001H415.664V145.522H413.001ZM413.001 266.478H410.338C410.338 285.165 410.336 299.02 409.44 309.988C408.546 320.925 406.777 328.757 403.372 335.439L405.744 336.648L408.117 337.857C411.969 330.299 413.828 321.688 414.748 310.422C415.666 299.186 415.664 285.077 415.664 266.478H413.001ZM405.744 336.648L403.372 335.439C397.244 347.466 387.467 357.243 375.441 363.37L376.65 365.743L377.859 368.116C390.887 361.478 401.479 350.886 408.117 337.857L405.744 336.648ZM376.65 365.743L375.441 363.37C368.758 366.775 360.926 368.545 349.989 369.439C339.021 370.335 325.166 370.337 306.479 370.337V373V375.663C325.078 375.663 339.188 375.665 350.423 374.747C361.689 373.826 370.3 371.967 377.859 368.116L376.65 365.743ZM306.479 373V370.337H106.524V373V375.663H306.479V373ZM106.524 373V370.337C87.8366 370.337 73.9815 370.335 63.0133 369.439C52.0763 368.545 44.2445 366.775 37.5618 363.37L36.3528 365.743L35.1438 368.116C42.7025 371.967 51.3131 373.826 62.5796 374.747C73.8149 375.665 87.9245 375.663 106.524 375.663V373ZM36.3528 365.743L37.5618 363.37C25.5357 357.243 15.7584 347.466 9.63086 335.439L7.25806 336.648L4.88526 337.857C11.5235 350.886 22.1156 361.478 35.1438 368.116L36.3528 365.743ZM7.25806 336.648L9.63085 335.439C6.22582 328.757 4.45641 320.925 3.5627 309.988C2.66646 299.02 2.66427 285.165 2.66427 266.478H0.0012207H-2.66183C-2.66183 285.077 -2.66379 299.186 -1.74571 310.422C-0.825091 321.688 1.03391 330.299 4.88526 337.857L7.25806 336.648ZM0.0012207 266.478H2.66427V66.5762H0.0012207H-2.66183V266.478H0.0012207ZM0.0012207 66.5762L2.66427 66.5762C2.66435 31.278 31.2792 2.66313 66.5774 2.66305L66.5774 0L66.5774 -2.66305C28.3377 -2.66297 -2.66175 28.3364 -2.66183 66.5762L0.0012207 66.5762ZM66.5774 0V2.66305H160.056V0V-2.66305H66.5774V0ZM160.056 0L160.056 2.66305C176.38 2.66325 192.566 11.9504 209.59 21.8049C226.253 31.4503 243.754 41.6631 261.792 41.6631V39V36.3369C245.468 36.3369 229.282 27.0499 212.258 17.1954C195.595 7.54998 178.094 -2.66284 160.056 -2.66305L160.056 0Z" fill="url(#paint2_linear_304_2)" mask="url(#path-1-inside-1_304_2)"/>
<path d="M0.00116616 200C0.00116616 162.663 -0.259206 143.261 7.00117 129C13.3876 116.456 23.4671 106.392 36.0012 100C50.2505 92.7338 69.6944 93 107.001 93H306.001C343.308 93 362.752 92.7338 377.001 100C389.535 106.392 399.615 116.456 406.001 129C413.262 143.261 413.001 162.663 413.001 200V266C413.001 303.337 413.262 322.739 406.001 337C399.615 349.544 389.535 359.608 377.001 366C362.752 373.266 343.308 373 306.001 373H107.001C69.6944 373 50.2505 373.266 36.0012 366C23.4671 359.608 13.3876 349.544 7.00117 337C-0.259206 322.739 0.00116616 303.337 0.00116616 266V200Z" fill="url(#paint3_radial_304_2)"/>
<path d="M107.001 94.3318H306.001C324.681 94.3318 338.806 94.2662 350.049 95.1033C361.281 95.9395 369.501 97.6699 376.396 101.186C388.681 107.451 398.556 117.312 404.814 129.604C408.328 136.506 410.059 144.719 410.896 155.945C411.733 167.183 411.67 181.305 411.67 200V266C411.67 284.694 411.733 298.817 410.896 310.054C410.059 321.281 408.328 329.494 404.814 336.396C398.556 348.689 388.681 358.55 376.396 364.814C369.501 368.331 361.281 370.061 350.049 370.897C338.806 371.734 324.681 371.669 306.001 371.669H107.001C88.3213 371.669 74.1963 371.734 62.9531 370.897C51.7216 370.061 43.502 368.33 36.6064 364.814C24.3221 358.55 14.4459 348.689 8.1875 336.396C4.67356 329.494 2.94339 321.281 2.10645 310.054C1.26865 298.817 1.33301 284.694 1.33301 266V200C1.33301 181.305 1.26864 167.183 2.10645 155.945C2.94339 144.719 4.67367 136.506 8.1875 129.604C14.4459 117.312 24.3221 107.451 36.6064 101.186C43.502 97.67 51.7215 95.9395 62.9531 95.1033C74.1963 94.2662 88.3213 94.3318 107.001 94.3318Z" stroke="url(#paint4_linear_304_2)" stroke-width="2.66305"/>
<path fill-rule="evenodd" clip-rule="evenodd" d="M283.476 324C275.015 324 268.178 317.185 268.178 308.749V193.08L233.137 228.062C227.162 234.019 217.457 234.019 211.482 228.062C205.506 222.104 205.506 212.429 211.482 206.472L272.672 145.468C278.648 139.511 288.352 139.511 294.328 145.468L355.518 206.472C361.494 212.429 361.494 222.104 355.518 228.062C349.543 234.019 339.838 234.019 333.863 228.062L298.774 193.08V308.749C298.774 317.185 291.938 324 283.476 324Z" fill="white" fill-opacity="0.24"/>
<defs>
<radialGradient id="paint0_radial_304_2" cx="0" cy="0" r="1" gradientTransform="matrix(-399.677 -386.29 427.241 -412.931 413.001 373.414)" gradientUnits="userSpaceOnUse">
<stop stop-color="#0068E7"/>
<stop offset="1" stop-color="#158DEF"/>
</radialGradient>
<linearGradient id="paint1_linear_304_2" x1="0.0012207" y1="0" x2="399.157" y2="406.328" gradientUnits="userSpaceOnUse">
<stop offset="0.508799" stop-color="#85BFF8"/>
<stop offset="1" stop-color="#1050A9"/>
</linearGradient>
<linearGradient id="paint2_linear_304_2" x1="0.0012207" y1="0" x2="461.527" y2="318.701" gradientUnits="userSpaceOnUse">
<stop offset="0.228092" stop-color="#85BFF8"/>
<stop offset="0.99027" stop-color="#0567E4"/>
</linearGradient>
<radialGradient id="paint3_radial_304_2" cx="0" cy="0" r="1" gradientTransform="matrix(-413.002 -280.002 413.002 -467.157 413.002 373.001)" gradientUnits="userSpaceOnUse">
<stop stop-color="#0164E3"/>
<stop offset="1" stop-color="#3394F0"/>
<stop offset="1" stop-color="#3394F0"/>
</radialGradient>
<linearGradient id="paint4_linear_304_2" x1="0" y1="92.9988" x2="368.817" y2="432.647" gradientUnits="userSpaceOnUse">
<stop offset="0.228092" stop-color="#85BFF8"/>
<stop offset="0.946844" stop-color="#0567E4"/>
</linearGradient>
</defs>
</svg>
